<svg width="64" height="64" viewBox="0 0 64 64" fill="none" xmlns="http://www.w3.org/2000/svg">
  <rect width="64" height="64" rx="18" fill="#F6F2EB" />
  <path
    d="M48.8 10.6C43.4 7.5 35.8 7 29 9C22.6 10.9 17.2 14.9 13.9 20.5C11.2 24.8 9.9 30.1 10.4 35.2C10.9 40.5 13.3 44.9 17.3 47.5"
    stroke="#13589A"
    stroke-width="2.5"
    stroke-linecap="round"
  />
  <path
    d="M25.9 16.3C31.1 16.1 35.2 16.2 38.3 17.4C41.6 18.6 43.3 21.5 43.1 24.8C42.9 28.4 40.9 30.9 37.1 32.5C35 33.4 32.8 33.7 29.6 34L44.4 45"
    stroke="#13589A"
    stroke-width="2.5"
    stroke-linecap="round"
    stroke-linejoin="round"
  />
  <path d="M25.7 16.7L26.4 38.2" stroke="#13589A" stroke-width="2.5" stroke-linecap="round" />
  <path
    d="M26.7 24.9C31.1 24.9 34.2 24.7 35.9 23.9C37.4 23.2 38.2 22.1 38.2 20.5C38.2 19 37.5 17.9 36 17.2C34 16.2 30.2 16 26.3 16"
    stroke="#13589A"
    stroke-width="2.5"
    stroke-linecap="round"
    stroke-linejoin="round"
  />
  <path d="M43.7 45C45.1 45.8 47.2 45.7 49.4 44.4" stroke="#13589A" stroke-width="1.75" stroke-linecap="round" />
</svg>
